Tinker Bell must team up with a rival fairy to keep their existence a secret from humans.
 
http://www.imdb.com/title/tt1216515/

Subtitles (srt) : Dutch, English.

Covers included.

Tijdens een zomer bezoek aan het vaste land, wordt Tinker Bell per ongeluk ontdekt en gevangen genomen door een klein meisje. De andere elfjes, geleid door Vidia, zetten een reddingsmissie op door een zware zomerstorm om Tinker Bell te bevrijden. Tinker Bell ontwikkelt echter een speciale band met het eenzame meisje en is vastbesloten om de relatie tussen haar en haar vader te verbeteren. Maar als Tink hierdoor haar redders wegstuurt, om haar nieuwe vriend te helpen; riskeert ze hiermee haar eigen veiligheid en de toekomst van alle elfjes.
 
http://www.moviemeter.nl/film/65388

Ondertitels (srt) : Engels, Nederlands.

Hoesjes bijgevoegd.

General
Complete name                    : Tinker Bell and the Great Fairy Rescue-XviD-BRRip[Eng]2010 2Lions-Team\Tinker Bell and the Great Fairy Rescue-XviD-BRRip[Eng]2010 2Lions-Team.avi
Format                           : AVI
Format/Info                      : Audio Video Interleave
File size                        : 1.12 GiB
Duration                         : 1h 16mn
Overall bit rate                 : 2 092 Kbps
Writing application              : VirtualDubMod 1.5.4.1 (build 2178/release)
Writing library                  : VirtualDubMod build 2178/release

Video
ID                               : 0
Format                           : MPEG-4 Visual
Format profile                   : Simple@L3
Format settings, BVOP            : No
Format settings, QPel            : No
Format settings, GMC             : No warppoints
Format settings, Matrix          : Default (H.263)
Codec ID                         : XVID
Codec ID/Hint                    : XviD
Duration                         : 1h 16mn
Bit rate                         : 1 635 Kbps
Width                            : 720 pixels
Height                           : 400 pixels
Display aspect ratio             : 16:9
Frame rate                       : 23.976 fps
Resolution                       : 8 bits
Colorimetry                      : 4:2:0
Scan type                        : Progressive
Bits/(Pixel*Frame)               : 0.237
Stream size                      : 894 MiB (78%)
Writing library                  : XviD 1.1.2 (UTC 2006-11-01)

Audio
ID                               : 1
Format                           : AC-3
Format/Info                      : Audio Coding 3
Format_Settings_ModeExtension    : CM (complete main)
Codec ID                         : 2000
Duration                         : 1h 16mn
Bit rate mode                    : Constant
Bit rate                         : 448 Kbps
Channel(s)                       : 6 channels
Channel positions                : Front: L C R, Side: L R, LFE
Sampling rate                    : 48.0 KHz
Stream size                      : 245 MiB (21%)
Alignment                        : Split accross interleaves
Interleave, duration             : 42 ms (1.00 video frame)
Interleave, preload duration     : 500 ms

Thanks to SimplyReleaseS for the source, and Dutch subs.Nice job!
 
Brought to you by 
2Lions Team

meer zien??
                   
Kom dan eens kijken op ons NIEUWE forum 
            
http://www.2lions-site.nl/

2Lions the site to be for all your Dutch MOVIES and more

******************************************

DON T HIT AND RUN Niet gelijk afhaken als de FILM binnen is blijf seeden. 

Don`t quit after you finished the download, but keep seeding

There are fake torrents from uploaders who use our team name.
Those are not ours, or members from our team.
We 2Lions-Team are not responsible for the fake posts on our name

Wij 2Lions-Team zijn niet verantwoordelijk voor die zieke FAKE posten die op onze naam worden gedaan

Please check our site !!!

to the fakers , get a life !!!